#!OML:ASF I:\Actors\actors\Patient Classification 1\Patient 1\Session 1\Subject1.ASF
:FULLY-SPECIFIED
:DEGREES
613
root 1.12458 17.4179 9.49965 -1.91252 -8.61987 -6.89978
lowerback -6.94132 0.0315819 6.25458
upperback -11.7977 0.150123 4.01526
thorax -8.64996 -0.264845 0.79051
lowerneck -7.06399 -4.90266 -3.68636
upperneck 21.1974 -8.03142 7.50956
head 8.16647 -3.47194 2.35659
rclavicle -2.0276e-014 3.18055e-014
rhumerus 38.6539 32.2357 -7.08692
rradius 106.885
rwrist 1.07907
rhand -1.34723 -53.9421
rfingers 7.12502
rthumb 24.2993 -82.422
lclavicle -2.0276e-014 3.18055e-014
lhumerus 37.3209 -33.9386 11.9418
lradius 105.504
lwrist 7.15969
lhand -37.1215 -3.27122
lfingers 7.12502
lthumb -10.1919 26.4619
rfemur 2.70662 21.3661 25.5542
rtibia 13.2766
rfoot -15.8439 -15.1869
rtoes -6.1555
lfemur 13.3013 -20.4278 -18.5614
ltibia 2.38645
lfoot -15.0808 35.1692
ltoes -2.86173
614
root 1.12603 17.4117 9.53068 -2.17219 -8.70029 -6.84311
lowerback -6.24074 0.0050704 6.33215
upperback -12.5444 0.215609 3.82873
thorax -9.91546 -0.282159 0.581861
lowerneck -6.549 -5.07499 -3.6712
upperneck 21.0935 -8.36928 7.87311
head 8.07472 -3.618 2.45402
rclavicle -3.97569e-016 1.47101e-014
rhumerus 38.3735 30.9331 -6.26175
rradius 107.819
rwrist 0.48574
rhand -1.19393 -53.8861
rfingers 7.12502
rthumb 24.4463 -82.3462
lclavicle -3.97569e-016 1.47101e-014
lhumerus 37.5745 -32.6973 10.1963
lradius 106.655
lwrist 7.87312
lhand -36.6211 -2.93619
lfingers 7.12502
lthumb -9.70912 26.82
rfemur 3.04245 21.2757 25.5937
rtibia 13.3843
rfoot -15.9915 -15.1895
rtoes -6.62008
lfemur 13.7951 -20.4267 -18.8598
ltibia 2.32386
lfoot -15.1783 35.3111
ltoes -3.05922
615
root 1.12736 17.4066 9.56074 -2.39037 -8.68734 -6.82486
lowerback -6.06388 0.0158464 6.37464
upperback -12.8844 0.261193 3.73093
thorax -10.4155 -0.283051 0.466875
lowerneck -6.59762 -5.30807 -4.32009
upperneck 20.9222 -8.77025 8.67044
head 8.11845 -3.79114 2.78509
rclavicle -2.62396e-014 3.1408e-014
rhumerus 38.1813 28.9324 -5.16332
rradius 108.56
rwrist 0.152591
rhand -1.07585 -53.7115
rfingers 7.12502
rthumb 24.5595 -82.1563
lclavicle -2.62396e-014 3.1408e-014
lhumerus 38.0707 -30.6093 8.5971
lradius 107.649
lwrist 8.88194
lhand -36.1028 -2.65534
lfingers 7.12502
lthumb -9.20897 27.1236
rfemur 3.36523 21.1641 25.6617
rtibia 13.4616
rfoot -16.1724 -15.1925
rtoes -6.85887
lfemur 14.1817 -20.4348 -19.0617
ltibia 2.30779
lfoot -15.266 35.3769
ltoes -3.17283
616
root 1.12639 17.4035 9.59153 -2.5823 -8.6499 -6.75712
lowerback -6.41704 0.00148332 6.23071
upperback -12.8272 0.202978 3.70757
thorax -10.1388 -0.293558 0.516287
lowerneck -6.7125 -5.54797 -4.20084
upperneck 20.0675 -9.06522 8.79717
head 7.87801 -3.92803 2.77089
rclavicle -6.95746e-014 7.35503e-014
rhumerus 38.2015 26.2636 -4.03577
rradius 109.187
rwrist -0.273943
rhand -0.90844 -53.5605
rfingers 7.12502
rthumb 24.72 -81.9834
lclavicle -6.95746e-014 7.35503e-014
lhumerus 38.6094 -27.7127 6.95343
lradius 108.53
lwrist 10.304
lhand -35.8487 -2.48136
lfingers 7.12502
lthumb -8.96377 27.3082
rfemur 3.69598 21.0353 25.6598
rtibia 13.4598
rfoot -16.3503 -15.1551
rtoes -7.16845
lfemur 14.5367 -20.4584 -19.3012
ltibia 2.27803
lfoot -15.422 35.4317
ltoes -3.10593
617
root 1.12387 17.4012 9.62308 -2.73711 -8.63924 -6.64873
lowerback -7.06863 -0.0229137 5.96673
upperback -12.5665 0.0969678 3.7277
thorax -9.45194 -0.305136 0.668121
lowerneck -7.11753 -5.76953 -4.25551
upperneck 19.258 -9.33187 9.06436
head 7.72024 -4.04243 2.82717
rclavicle 1.94809e-014 -1.74931e-014
rhumerus 38.3966 23.2771 -2.93792
rradius 109.756
rwrist -1.14041
rhand -0.669559 -53.6934
rfingers 7.12502
rthumb 24.9489 -82.0847
lclavicle 1.94809e-014 -1.74931e-014
lhumerus 39.0743 -24.5376 5.54514
lradius 109.181
lwrist 11.8144
lhand -35.9667 -2.59525
lfingers 7.12502
lthumb -9.07762 27.1894
rfemur 4.00944 20.9345 25.6047
rtibia 13.385
rfoot -16.4931 -15.123
rtoes -7.5601
lfemur 14.9061 -20.508 -19.5968
ltibia 2.17413
lfoot -15.5417 35.5243
ltoes -3.07262
618
root 1.12117 17.4004 9.65392 -2.83003 -8.67431 -6.66602
lowerback -7.44956 -0.0456541 5.90312
upperback -12.5151 0.0306871 3.75109
thorax -9.17249 -0.325822 0.722583
lowerneck -7.48988 -5.98142 -4.49087
upperneck 18.7387 -9.62163 9.48961
head 7.67235 -4.16173 2.96374
rclavicle 1.07344e-014 -9.14409e-015
rhumerus 38.6107 20.6766 -1.87208
rradius 110.209
rwrist -2.38268
rhand -0.690655 -53.9113
rfingers 7.12502
rthumb 24.9287 -82.3055
lclavicle 1.07344e-014 -9.14409e-015
lhumerus 39.4042 -21.7789 4.33413
lradius 109.623
lwrist 12.8105
lhand -37.1354 -2.30256
lfingers 7.12502
lthumb -10.2052 27.4299
rfemur 4.27439 20.8881 25.6927
rtibia 13.301
rfoot -16.5944 -15.1216
rtoes -7.92377
lfemur 15.246 -20.5765 -19.7328
ltibia 2.04571
lfoot -15.616 35.639
ltoes -3.05913
619
root 1.1189 17.4009 9.68428 -2.90661 -8.74532 -6.71528
lowerback -7.25515 -0.0446981 6.00122
upperback -12.8604 0.0652365 3.7129
thorax -9.68658 -0.332746 0.642386
lowerneck -7.58976 -6.15672 -4.71718
upperneck 18.6803 -9.92426 9.93101
head 7.73008 -4.28315 3.11128
rclavicle -1.39149e-014 6.55989e-014
rhumerus 38.5895 18.7235 -1.11924
rradius 110.561
rwrist -3.23287
rhand -0.752565 -53.9698
rfingers 7.12502
rthumb 24.8694 -82.3722
lclavicle -1.39149e-014 6.55989e-014
lhumerus 39.633 -19.7211 3.04026
lradius 110.005
lwrist 13.0873
lhand -36.9073 -1.61738
lfingers 7.12502
lthumb -9.98524 28.1258
rfemur 4.55325 20.8662 25.816
rtibia 13.1813
rfoot -16.6799 -15.0833
rtoes -7.97824
lfemur 15.5926 -20.6632 -19.8491
ltibia 1.91392
lfoot -15.8577 35.8135
ltoes -2.63896
620
root 1.11623 17.4003 9.71411 -2.97381 -8.80453 -6.74448
lowerback -6.79335 -0.0156686 6.10822
upperback -13.3842 0.170975 3.64387
thorax -10.5703 -0.3164 0.532955
lowerneck -7.34992 -6.3308 -5.01151
upperneck 18.4907 -10.189 10.2724
head 7.67972 -4.41582 3.25098
rclavicle -2.42517e-014 2.94201e-014
rhumerus 38.3329 17.0297 -0.668644
rradius 110.855
rwrist -3.29701
rhand -0.441106 -53.9952
rfingers 7.12502
rthumb 25.1678 -82.3559
lclavicle -2.42517e-014 2.94201e-014
lhumerus 39.8723 -17.964 1.61761
lradius 110.351
lwrist 13.5064
lhand -36.8734 -0.671464
lfingers 7.12502
lthumb -9.95251 29.0733
rfemur 4.83158 20.8514 25.9126
rtibia 13.0365
rfoot -16.7146 -15.0414
rtoes -7.94694
lfemur 15.9042 -20.7308 -19.9739
ltibia 1.81482
lfoot -16.1529 35.9818
ltoes -2.32303
621
root 1.1109 17.4004 9.74294 -3.0431 -8.86429 -6.80897
lowerback -6.81456 0.0209922 6.11703
upperback -13.5206 0.225779 3.64754
thorax -10.7176 -0.294198 0.535821
lowerneck -7.23616 -6.53381 -5.26495
upperneck 17.832 -10.4559 10.7079
head 7.50439 -4.54658 3.40932
rclavicle 3.85642e-014 1.78906e-014
rhumerus 38.119 14.8036 -0.0933576
rradius 110.978
rwrist -2.99797
rhand 0.0746406 -53.9279
rfingers 7.12502
rthumb 25.6619 -82.2184
lclavicle 3.85642e-014 1.78906e-014
lhumerus 40.2016 -15.7259 0.202943
lradius 110.493
lwrist 14.5807
lhand -34.042 -0.654596
lfingers 7.12502
lthumb -7.22014 29.2022
rfemur 5.11238 20.8971 26.0831
rtibia 12.9201
rfoot -16.7548 -15.0522
rtoes -7.88546
lfemur 16.1746 -20.743 -20.0055
ltibia 1.75371
lfoot -16.2778 36.0957
ltoes -2.4764
622
root 1.10316 17.4021 9.77071 -3.13589 -8.95948 -6.87116
lowerback -7.54831 0.0251844 5.97377
upperback -13.0535 0.144532 3.75919
thorax -9.73844 -0.291581 0.710246
lowerneck -7.63379 -6.6804 -5.31208
upperneck 16.6446 -10.5766 11.123
head 7.22835 -4.5907 3.52445
rclavicle -1.03368e-014 1.19271e-015
rhumerus 38.158 11.7666 0.507858
rradius 110.883
rwrist -2.75413
rhand 0.663482 -53.7514
rfingers 7.12502
rthumb 26.2257 -81.9593
lclavicle -1.03368e-014 1.19271e-015
lhumerus 40.4575 -12.7577 -1.09594
lradius 110.413
lwrist 15.8136
lhand -33.3381 -0.97156
lfingers 7.12502
lthumb -6.54061 28.9074
rfemur 5.41358 20.9519 26.2706
rtibia 12.817
rfoot -16.8559 -15.0189
rtoes -7.64304
lfemur 16.5051 -20.8085 -20.0746
ltibia 1.65797
lfoot -16.4559 36.2565
ltoes -2.25699
623
root 1.09608 17.4041 9.79586 -3.15409 -9.02103 -6.90912
lowerback -6.80687 0.0775436 6.10628
upperback -13.7122 0.310854 3.63183
thorax -10.9465 -0.258681 0.53014
lowerneck -7.28554 -6.81666 -5.64005
upperneck 16.4274 -10.8187 11.6665
head 7.16703 -4.70523 3.74101
rclavicle -1.66979e-014 -7.55382e-015
rhumerus 37.7684 10.4748 0.962267
rradius 110.955
rwrist -3.14619
rhand 0.873036 -53.5959
rfingers 7.12502
rthumb 26.4263 -81.7738
lclavicle -1.66979e-014 -7.55382e-015
lhumerus 40.869 -11.5743 -2.52085
lradius 110.457
lwrist 17.0352
lhand -33.4228 -0.793884
lfingers 7.12502
lthumb -6.62233 29.0826
rfemur 5.57381 20.9228 26.3586
rtibia 12.7423
rfoot -16.9396 -14.9138
rtoes -7.56305
lfemur 16.7193 -20.9239 -20.1507
ltibia 1.5918
lfoot -16.6989 36.3992
ltoes -1.73884
624
root 1.08931 17.4066 9.81955 -3.05009 -9.01538 -6.89497
lowerback -6.67568 0.101376 6.06385
upperback -14.0386 0.369467 3.58144
thorax -11.4117 -0.24061 0.511331
lowerneck -7.17011 -6.98693 -5.9949
upperneck 15.958 -11.0486 12.1459
head 7.06558 -4.81887 3.93378
rclavicle -8.74653e-015 7.95139e-015
rhumerus 37.6036 8.63138 1.50617
rradius 110.914
rwrist -3.95008
rhand 0.536799 -53.4765
rfingers 7.12502
rthumb 26.1044 -81.7024
lclavicle -8.74653e-015 7.95139e-015
lhumerus 41.1655 -9.92495 -3.77466
lradius 110.29
lwrist 17.8182
lhand -33.6102 -0.0467176
lfingers 7.12502
lthumb -6.80331 29.824
rfemur 5.54203 20.8517 26.3106
rtibia 12.7139
rfoot -17.008 -14.817
rtoes -7.65682
lfemur 16.6966 -21.0232 -20.2013
ltibia 1.62745
lfoot -16.8704 36.4915
ltoes -1.47806
625
root 1.08062 17.4092 9.84355 -2.95145 -9.02463 -6.84837
lowerback -7.05747 0.110688 5.85897
upperback -13.9713 0.34495 3.61131
thorax -11.1007 -0.223307 0.650628
lowerneck -7.007 -7.11845 -6.2764
upperneck 15.1304 -11.1785 12.6073
head 6.82856 -4.89417 4.11983
rclavicle -1.03368e-014 -5.12864e-014
rhumerus 37.592 6.35807 2.11422
rradius 110.54
rwrist -3.96348
rhand 0.307816 -53.2534
rfingers 7.12502
rthumb 25.8852 -81.5114
lclavicle -1.03368e-014 -5.12864e-014
lhumerus 41.2734 -7.83665 -4.91488
lradius 109.986
lwrist 18.2601
lhand -34.4238 0.615104
lfingers 7.12502
lthumb -7.58861 30.459
rfemur 5.50975 20.7894 26.2366
rtibia 12.6996
rfoot -17.0859 -14.7554
rtoes -7.67857
lfemur 16.6908 -21.1355 -20.2988
ltibia 1.65753
lfoot -17.0697 36.6088
ltoes -1.25581
626
root 1.0701 17.4116 9.86653 -2.91878 -9.07755 -6.87224
lowerback -7.87821 0.0933071 5.59556
upperback -13.4524 0.232058 3.76118
thorax -10.0031 -0.220599 0.931499
lowerneck -7.63588 -7.16945 -6.34788
upperneck 14.1002 -11.1421 12.9971
head 6.63837 -4.85534 4.23781
rclavicle -5.20816e-014 3.57812e-014
rhumerus 37.7244 3.64231 2.84236
rradius 109.853
rwrist -3.00946
rhand 0.0600896 -52.8091
rfingers 7.12502
rthumb 25.6479 -81.1015
lclavicle -5.20816e-014 3.57812e-014
lhumerus 41.1177 -5.24944 -5.9975
lradius 109.661
lwrist 18.7353
lhand -35.5858 0.785287
lfingers 7.12502
lthumb -8.71008 30.5856
rfemur 5.57114 20.7727 26.3051
rtibia 12.6872
rfoot -17.1247 -14.7483
rtoes -7.67306
lfemur 16.8159 -21.2334 -20.3455
ltibia 1.62574
lfoot -17.2464 36.7504
ltoes -1.11553
